<svg width="16" height="17" viewBox="0 0 16 17" fill="none" xmlns="http://www.w3.org/2000/svg">
<path d="M5.00001 8.42593C6.30601 8.42593 7.41801 9.26093 7.83001 10.4259H14V12.4259H7.82901C7.64583 12.9448 7.32351 13.4034 6.89728 13.7514C6.47106 14.0995 5.95734 14.3236 5.41231 14.3994C4.86727 14.4751 4.3119 14.3996 3.80691 14.1809C3.30193 13.9623 2.86677 13.6091 2.54903 13.1598C2.23128 12.7105 2.04318 12.1825 2.00529 11.6336C1.9674 11.0846 2.08118 10.5358 2.33419 10.0471C2.5872 9.55846 2.96969 9.14877 3.43985 8.86285C3.91001 8.57693 4.44974 8.42578 5.00001 8.42593ZM5.00001 10.4259C4.73479 10.4259 4.48044 10.5313 4.2929 10.7188C4.10537 10.9064 4.00001 11.1607 4.00001 11.4259C4.00001 11.6912 4.10537 11.9455 4.2929 12.133C4.48044 12.3206 4.73479 12.4259 5.00001 12.4259C5.26523 12.4259 5.51958 12.3206 5.70712 12.133C5.89465 11.9455 6.00001 11.6912 6.00001 11.4259C6.00001 11.1607 5.89465 10.9064 5.70712 10.7188C5.51958 10.5313 5.26523 10.4259 5.00001 10.4259ZM11 2.42593C11.55 2.42604 12.0893 2.57732 12.5591 2.86326C13.0289 3.14919 13.4111 3.55876 13.6639 4.04721C13.9166 4.53566 14.0302 5.0842 13.9923 5.63286C13.9544 6.18152 13.7663 6.7092 13.4488 7.15822C13.1312 7.60724 12.6963 7.96032 12.1916 8.17888C11.6869 8.39743 11.1319 8.47305 10.5871 8.39747C10.0424 8.32188 9.52889 8.09801 9.10278 7.7503C8.67667 7.4026 8.35433 6.94445 8.17101 6.42593H2.00001V4.42593H8.17001C8.37702 3.84086 8.76033 3.33435 9.26716 2.97617C9.77398 2.61799 10.3794 2.42575 11 2.42593ZM11 4.42593C10.7348 4.42593 10.4804 4.53129 10.2929 4.71883C10.1054 4.90636 10 5.16072 10 5.42593C10 5.69115 10.1054 5.9455 10.2929 6.13304C10.4804 6.32058 10.7348 6.42593 11 6.42593C11.2652 6.42593 11.5196 6.32058 11.7071 6.13304C11.8947 5.9455 12 5.69115 12 5.42593C12 5.16072 11.8947 4.90636 11.7071 4.71883C11.5196 4.53129 11.2652 4.42593 11 4.42593Z" fill="#222222"/>
</svg>
