<svg width="45" height="45" viewBox="0 0 45 45" fill="none" xmlns="http://www.w3.org/2000/svg">
<path d="M22.7871 7.91602C23.2191 7.93302 23.6451 8.08902 23.9941 8.38302L24.1211 8.50002L30.7071 15.086V11.5H32.7071V17.086L36.4141 20.793L35.0001 22.207L32.7071 19.914V28.5H35.7071V29.5C35.7071 31.298 35.1101 33 34.0481 34.379L34.3191 34.587C34.6531 34.82 35.0711 34.961 35.5151 34.993L35.7071 35V37L35.4491 36.993C34.6021 36.952 33.7841 36.667 33.0961 36.172L32.7621 35.912C32.3521 35.637 31.8681 35.494 31.3741 35.5C30.8801 35.494 30.3961 35.637 29.9861 35.912L29.6511 36.172C28.9121 36.714 27.9891 37 27.0411 37C26.0911 37 25.1691 36.714 24.4301 36.172L24.0951 35.912C23.6851 35.637 23.2011 35.494 22.7071 35.5C22.2131 35.494 21.7291 35.637 21.3191 35.912L20.9851 36.172C20.2451 36.714 19.3221 37 18.3741 37C17.4251 37 16.5021 36.714 15.7641 36.172L15.4281 35.912C15.0181 35.637 14.5341 35.494 14.0401 35.5C13.5461 35.494 13.0621 35.637 12.6521 35.912L12.3181 36.172C11.6291 36.667 10.8121 36.952 9.96506 36.992L9.70706 37V35L9.89906 34.993C10.3271 34.967 10.7401 34.827 11.0951 34.588L11.2321 34.483L11.3661 34.378C10.4051 33.13 9.83406 31.625 9.72606 30.053L9.71106 29.758L9.69006 28.5H12.7071V19.914L10.4141 22.207L9.00006 20.793L21.2931 8.50002C21.6631 8.13002 22.1421 7.93502 22.6261 7.91602H22.7881H22.7871ZM33.6231 30.5H11.7901L11.7971 30.54C11.9951 31.67 12.5131 32.719 13.2911 33.562C13.5391 33.52 13.7901 33.5 14.0411 33.5C14.9891 33.5 15.9121 33.786 16.6511 34.329L16.9861 34.588C17.3671 34.853 17.8581 35 18.3741 35C18.8891 35 19.3801 34.853 19.7621 34.587L20.0961 34.328C20.8371 33.786 21.7591 33.5 22.7071 33.5C23.6561 33.5 24.5791 33.786 25.3181 34.328L25.6531 34.588C26.0331 34.853 26.5251 35 27.0411 35C27.5561 35 28.0471 34.853 28.4281 34.587L28.7631 34.328C29.5031 33.786 30.4251 33.5 31.3731 33.5C31.6261 33.5 31.8781 33.52 32.1231 33.56C32.8791 32.741 33.3911 31.727 33.6001 30.632L33.6221 30.5H33.6231ZM22.7071 9.91502L14.7071 17.915V28.5H18.7071V24.5C18.7071 23.995 18.8971 23.509 19.2401 23.139C19.5841 22.769 20.0541 22.543 20.5571 22.505L20.7071 22.5H24.7071C25.2121 22.5 25.6971 22.69 26.0681 23.033C26.4371 23.377 26.6641 23.847 26.7021 24.35L26.7071 24.5V28.5H30.7071V17.914L22.7071 9.91502ZM24.7071 24.5H20.7071V28.5H24.7071V24.5ZM22.7071 14.5C23.5031 14.5 24.2661 14.816 24.8281 15.379C25.3911 15.941 25.7071 16.704 25.7071 17.5C25.7071 18.296 25.3911 19.059 24.8281 19.621C24.2661 20.184 23.5031 20.5 22.7071 20.5C21.9111 20.5 21.1481 20.184 20.5861 19.621C20.0231 19.059 19.7071 18.296 19.7071 17.5C19.7071 16.704 20.0231 15.941 20.5861 15.379C21.1481 14.816 21.9111 14.5 22.7071 14.5ZM22.7071 16.5C22.4421 16.5 22.1871 16.605 22.0001 16.793C21.8121 16.98 21.7071 17.235 21.7071 17.5C21.7071 17.765 21.8121 18.02 22.0001 18.207C22.1871 18.395 22.4421 18.5 22.7071 18.5C22.9721 18.5 23.2271 18.395 23.4141 18.207C23.6021 18.02 23.7071 17.765 23.7071 17.5C23.7071 17.235 23.6021 16.98 23.4141 16.793C23.2271 16.605 22.9721 16.5 22.7071 16.5Z" fill="black"/>
</svg>
