<svg width="12" height="13" viewBox="0 0 12 13" fill="none" xmlns="http://www.w3.org/2000/svg">
<g clip-path="url(#clip0_5_391)">
<path fill-rule="evenodd" clip-rule="evenodd" d="M5.66025 1.51807L4.11375 4.84995L0.41625 5.3262C0.344982 5.33526 0.277819 5.36461 0.222749 5.41074C0.167679 5.45688 0.127021 5.51786 0.10561 5.58644C0.0841998 5.65502 0.0829385 5.7283 0.101976 5.79757C0.121014 5.86685 0.15955 5.92919 0.213 5.9772L2.94787 8.43907L2.211 12.1336C2.19682 12.2044 2.20338 12.2778 2.2299 12.3449C2.25642 12.4121 2.30177 12.4702 2.3605 12.5122C2.41923 12.5542 2.48884 12.5784 2.56097 12.5818C2.63311 12.5852 2.70469 12.5677 2.76712 12.5314L6 10.6576L9.23438 12.5314C9.29677 12.5676 9.36826 12.585 9.44029 12.5815C9.51231 12.578 9.58181 12.5539 9.64045 12.5119C9.6991 12.47 9.74441 12.412 9.77096 12.345C9.7975 12.2779 9.80416 12.2047 9.79012 12.1339L9.05325 8.43907L11.7881 5.9772C11.8414 5.9292 11.8799 5.86691 11.8989 5.79772C11.9179 5.72853 11.9166 5.65535 11.8952 5.58685C11.8739 5.51836 11.8333 5.45743 11.7784 5.4113C11.7234 5.36516 11.6564 5.33576 11.5852 5.32657L7.88775 4.84995L6.34012 1.51807C6.31002 1.45323 6.26201 1.39835 6.20175 1.35989C6.14149 1.32143 6.07149 1.30099 6 1.30099C5.92851 1.30099 5.85851 1.32143 5.79825 1.35989C5.73799 1.39835 5.68998 1.45323 5.65987 1.51807H5.66025Z" fill="#717171"/>
</g>
<defs>
<clipPath id="clip0_5_391">
<rect width="12" height="12" fill="white" transform="translate(0 0.925934)"/>
</clipPath>
</defs>
</svg>
